HIERARCHY
ROOT hip
{
	OFFSET 0.000000 0.000000 0.000000 
	CHANNELS 6 Xposition Yposition Zposition Xrotation Zrotation Yrotation
	JOINT abdomen
	{
		OFFSET 0.000000 3.402643 0.000000 
		CHANNELS 3 Xrotation Zrotation Yrotation
		JOINT chest
		{
			OFFSET 0.000000 8.438565 -0.680529 
			CHANNELS 3 Xrotation Zrotation Yrotation
			JOINT neck
			{
				OFFSET 0.000000 10.207942 -0.272212 
				CHANNELS 3 Xrotation Zrotation Yrotation
				JOINT head
				{
					OFFSET 0.000000 3.130431 0.000000 
					CHANNELS 3 Xrotation Zrotation Yrotation
					End Site
					{
						OFFSET 0.000000 3.130435 0.000000 
					}
				}
			}
			JOINT lCollar
			{
				OFFSET 3.470700 6.669187 -0.816635 
				CHANNELS 3 Yrotation Zrotation Xrotation
				JOINT lShldr
				{
					OFFSET 3.198488 0.000000 0.000000 
					CHANNELS 3 Zrotation Yrotation Xrotation
					JOINT lForeArm
					{
						OFFSET 10.139888 0.000000 0.000000 
						CHANNELS 3 Yrotation Zrotation Xrotation
						JOINT lHand
						{
							OFFSET 8.370511 0.000000 0.000000 
							CHANNELS 3 Zrotation Yrotation Xrotation
							End Site
							{
								OFFSET 4.083176 0.000000 0.000000 
							}
						}
					}
				}
			}
			JOINT rCollar
			{
				OFFSET -3.470700 6.669187 -0.816635 
				CHANNELS 3 Yrotation Zrotation Xrotation
				JOINT rShldr
				{
					OFFSET -3.198488 0.000000 0.000000 
					CHANNELS 3 Zrotation Yrotation Xrotation
					JOINT rForeArm
					{
						OFFSET -10.139888 0.000000 0.000000 
						CHANNELS 3 Yrotation Zrotation Xrotation
						JOINT rHand
						{
							OFFSET -8.370511 0.000000 0.000000 
							CHANNELS 3 Zrotation Yrotation Xrotation
							End Site
							{
								OFFSET -4.083176 0.000000 0.000000 
							}
						}
					}
				}
			}
		}
	}
	JOINT lThigh
	{
		OFFSET 5.308129 -1.633274 1.361059 
		CHANNELS 3 Xrotation Zrotation Yrotation
		JOINT lShin
		{
			OFFSET -2.041588 -20.007561 0.000000 
			CHANNELS 3 Xrotation Zrotation Yrotation
			JOINT lFoot
			{
				OFFSET 0.000000 -19.190928 -1.224953 
				CHANNELS 3 Xrotation Yrotation Zrotation
				End Site
				{
					OFFSET 0.000000 -2.449906 4.627600 
				}
			}
		}
	}
	JOINT rThigh
	{
		OFFSET -5.308129 -1.633274 1.361059 
		CHANNELS 3 Xrotation Zrotation Yrotation
		JOINT rShin
		{
			OFFSET 2.041588 -20.007561 0.000000 
			CHANNELS 3 Xrotation Zrotation Yrotation
			JOINT rFoot
			{
				OFFSET 0.000000 -19.190928 -1.224953 
				CHANNELS 3 Xrotation Yrotation Zrotation
				End Site
				{
					OFFSET 0.000000 -2.449906 4.627600 
				}
			}
		}
	}
}
MOTION
Frames: 13
Frame Time: 0.033333
-55.847847 52.923283 47.852234 1.406250 0.507813 -32.509640 31.366367 -12.312857 -1.549293 -16.894531 10.595704 8.449061 51.553619 8.070152 2.616707 -74.882813 -7.255858 -8.701172 2.000000 -2.000000 0.000000 -64.130859 11.728517 -25.476528 -47.999023 -1.552099 -2.008644 -6.557653 59.443592 -3.979981 -2.000000 2.000000 0.000000 46.669922 -31.337891 1.992188 50.987041 1.170180 -2.001789 6.545642 -44.705750 -13.153316 -18.765640 9.801910 8.476304 40.164215 -4.685874 -3.847119 26.896585 21.075489 -5.362245 5.099198 0.048842 -30.874231 11.662956 5.734250 1.119919 -0.737764 -8.768639 -3.018965 
-57.688747 53.117908 49.449951 1.406250 0.869141 -32.324219 30.612156 -13.399096 -0.301225 -17.275391 10.097657 8.447267 51.553619 8.070152 2.616707 -75.332031 -6.542967 -9.785156 2.000000 -2.000000 0.000000 -66.132813 11.083984 -30.937502 -48.174805 -1.552099 -2.008644 -5.359529 58.955570 -1.995895 -2.000000 2.000000 0.000000 46.162109 -30.781252 2.426642 51.159225 1.299268 -1.866935 5.806505 -44.387478 -13.053651 -17.691721 7.526878 10.421089 27.829863 -5.147595 -3.133897 17.053144 19.022537 -4.017151 9.356449 1.724111 -30.515850 6.565294 5.832769 0.761363 3.067584 -10.239908 -3.291246 
-59.086407 53.261570 50.971012 1.757813 1.210938 -32.851563 30.115686 -14.448246 0.542811 -17.480469 9.589845 8.300781 51.553619 8.070152 2.616707 -75.927734 -5.800781 -9.833986 2.000000 -2.000000 0.000000 -68.779297 8.916017 -37.986763 -48.174805 -1.552099 -2.008644 -4.407046 57.884705 -0.933279 -2.000000 2.000000 0.000000 46.181641 -29.921873 2.426771 51.338341 1.169612 -1.992043 4.418591 -43.636074 -13.143392 -16.375195 5.487394 11.090589 18.148388 -5.510632 -1.996787 9.792928 16.251991 -3.007118 11.951001 2.488627 -30.015215 4.978373 5.768300 0.579187 6.919226 -10.444729 -4.078866 
-59.967312 53.235771 52.414703 1.933594 1.386719 -33.701172 29.453716 -15.031207 1.286808 -17.675781 9.423829 8.408203 51.553619 8.070152 2.616707 -76.601563 -5.400390 -9.209904 2.000000 -2.000000 0.000000 -69.765625 8.017578 -41.708977 -47.999023 -1.552099 -2.008644 -3.584301 56.962070 0.481316 -2.000000 2.000000 0.000000 45.917969 -29.394531 1.679688 51.514122 1.169611 -1.992043 3.401632 -43.161919 -13.362398 -15.032029 3.766396 9.042920 10.726949 -5.635277 -1.380065 8.319093 15.621129 -3.149538 13.701121 2.236270 -30.380579 4.640514 5.743086 0.695607 13.334784 -9.412323 -5.165680 
-60.801094 52.918110 53.966015 2.109375 1.552725 -34.745998 28.862194 -14.985983 1.559002 -17.451172 10.107423 8.408203 51.553619 8.070152 2.616707 -76.513672 -6.044921 -7.676810 2.000000 -2.000000 0.000000 -68.906250 8.798827 -39.383274 -47.851219 -1.433221 -2.318715 -2.915249 57.251865 2.899967 -2.000000 2.000000 0.000000 45.751949 -29.931641 0.488281 51.506248 1.349644 -2.059799 2.730834 -42.973431 -13.321285 -13.085058 2.324025 6.248477 4.196702 -5.908160 -0.727267 9.181270 15.255202 -4.079141 15.077971 1.533101 -30.458710 6.413296 5.720222 0.889352 16.830898 -8.534030 -7.764992 
-61.594543 52.326630 55.574417 2.275391 1.572266 -35.976292 28.619684 -14.253950 0.946112 -16.855469 11.279297 8.427734 51.553619 8.070152 2.616707 -75.703125 -7.949218 -5.068360 2.000000 -2.000000 0.000000 -67.294922 9.589845 -34.921875 -47.657490 -1.552668 -2.018390 -3.802163 58.105854 4.534397 -2.000000 2.000000 0.000000 46.093750 -31.542971 -2.368390 51.686291 1.308448 -1.856621 4.239510 -43.176044 -14.414897 -11.060108 1.278800 2.837095 -0.947826 -6.323094 -0.158382 9.944367 15.646519 -3.588576 15.881676 0.182825 -29.795757 9.394667 5.663292 1.041695 18.937881 -8.618452 -10.102652 
-61.390587 51.833031 56.561981 2.275391 1.572266 -37.206760 28.916477 -13.284637 0.257276 -16.425781 12.636719 8.457032 51.553619 8.070152 2.616707 -74.814453 -10.224608 -2.736109 2.000000 -2.000000 0.000000 -66.103516 9.746094 -30.486628 -47.481728 -1.542919 -2.018959 -4.167777 57.922348 4.872394 -2.000000 2.000000 0.000000 48.515625 -33.554688 -8.042507 51.689903 1.169611 -1.992043 6.705423 -43.339798 -15.683313 -9.462938 0.663007 1.816625 -2.900399 -6.308324 0.052231 7.581202 14.241753 -3.374737 15.469470 -1.682093 -28.668913 14.549884 5.597502 1.574823 23.723116 -7.968731 -11.161007 
-62.052238 51.461193 57.263233 2.275391 1.210938 -38.622841 30.112295 -12.695755 -0.474751 -16.728516 13.515625 8.242188 51.553619 8.070152 2.616707 -74.257813 -12.304686 -0.480597 2.000000 -2.000000 0.000000 -65.869141 7.958984 -27.304689 -46.954662 -1.533739 -2.029273 -4.426131 56.976559 1.657661 -2.000000 2.000000 0.000000 49.707031 -34.511719 -11.962892 51.871819 1.358734 -2.215728 7.855368 -43.916557 -16.535814 -12.972100 1.776287 2.994340 9.313923 -6.241341 -1.313817 2.289362 14.683346 -3.926672 10.489233 -4.334889 -26.657629 22.784491 5.257566 2.583394 27.786366 -11.616387 -10.170432 
-62.832455 51.606392 58.022678 2.109375 0.507813 -40.234245 31.675362 -11.774927 -1.422487 -17.216799 14.404297 7.958985 51.553619 8.070152 2.616707 -74.228516 -13.974608 2.097251 2.000000 -2.000000 0.000000 -65.966797 5.390625 -24.735407 -46.418285 -1.574441 -2.056234 -4.288399 55.364311 -3.076248 -2.000000 2.000000 0.000000 47.998047 -34.667973 -10.884460 51.335484 1.339403 -1.884151 6.461735 -44.206993 -17.060579 -14.601201 2.575808 5.341844 17.096146 -5.888233 -1.934571 -1.381481 14.095645 -4.133236 3.240289 -7.243833 -23.571482 33.001198 4.653461 2.822369 32.422005 -17.484493 -6.634958 
-63.821838 52.019855 59.223541 1.933594 -0.175781 -42.031250 33.233650 -10.716181 -2.264937 -17.568359 14.775392 7.578125 51.553619 8.070152 2.616707 -74.257820 -15.136717 4.814453 2.000000 -2.000000 0.000000 -65.712891 3.427734 -23.339260 -46.414642 -1.693783 -1.921862 -4.080729 53.370831 -6.015342 -2.000000 2.000000 0.000000 45.283203 -34.609375 -7.841798 50.290359 1.330623 -2.236920 3.465507 -45.183754 -16.199799 -12.589528 3.502188 8.239857 19.388519 -5.481384 -2.110953 -3.081299 13.528469 -3.915011 -5.135526 -10.342657 -20.055820 44.744568 3.876802 3.980413 37.376835 -23.155205 -0.250226 
-64.853020 52.380867 61.184452 1.757813 -1.064453 -43.828308 34.360619 -8.870240 -2.698616 -17.412109 14.072266 7.668390 51.553619 8.070152 2.616707 -74.296875 -15.292968 8.054066 2.000000 -2.000000 0.000000 -64.169922 2.216797 -22.694933 -46.778893 -1.523990 -2.029841 -3.746961 52.236160 -6.741199 -2.000000 2.000000 0.000000 43.603519 -34.169922 -6.079704 49.763802 1.342075 -2.265590 1.481406 -45.869694 -15.671910 -8.205963 3.539930 11.090118 18.146673 -5.519995 -1.647936 -5.785444 13.121764 -3.204472 -12.821109 -12.478385 -16.621250 53.500622 2.999804 4.335731 41.606750 -26.760967 6.228024 
-65.528641 52.808361 62.533398 1.572266 -1.767578 -45.429989 35.306087 -6.753929 -2.911180 -17.138672 12.841798 7.638889 51.553619 8.070152 2.616707 -74.121094 -14.492185 11.376953 2.000000 -2.000000 0.000000 -62.246098 1.181641 -22.363281 -47.130444 -1.533739 -2.029273 -3.549113 50.819088 -6.731316 -2.000000 2.000000 0.000000 44.472656 -32.509766 -6.494141 49.587517 1.321441 -2.247233 2.589561 -45.804955 -15.517124 -6.703133 3.822188 13.428685 20.794092 -5.400282 -2.298936 -2.722993 12.847029 -4.107514 -17.781818 -13.308887 -14.642387 56.840588 2.890546 4.478871 43.357540 -28.380098 9.740209 
-66.381729 53.355824 64.095634 1.406250 -2.285156 -46.670311 35.750690 -5.292277 -3.356544 -17.001953 11.972657 7.668042 51.553619 8.070152 2.616707 -74.121094 -13.496093 13.281251 2.000000 -2.000000 0.000000 -60.283203 1.240234 -22.324009 -47.833275 -1.552668 -2.018390 -3.216797 49.821365 -6.452638 -2.000000 2.000000 0.000000 46.933594 -30.595707 -8.447268 49.939808 1.371890 -2.273634 5.099357 -45.066154 -15.298777 -4.019261 3.597220 13.819726 20.610142 -5.351674 -2.401243 0.733603 13.233419 -5.152053 -19.138514 -12.575982 -14.562019 52.647587 3.085708 4.280286 40.237068 -28.535175 10.124293 
